<?xml version="1.0" encoding="UTF-8" standalone="no"?>
<!-- Created with Inkscape (http://www.inkscape.org/) -->

<svg
   xmlns:dc="http://purl.org/dc/elements/1.1/"
   xmlns:cc="http://creativecommons.org/ns#"
   xmlns:rdf="http://www.w3.org/1999/02/22-rdf-syntax-ns#"
   xmlns:svg="http://www.w3.org/2000/svg"
   xmlns="http://www.w3.org/2000/svg"
   xmlns:xlink="http://www.w3.org/1999/xlink"
   xmlns:sodipodi="http://sodipodi.sourceforge.net/DTD/sodipodi-0.dtd"
   xmlns:inkscape="http://www.inkscape.org/namespaces/inkscape"
   width="200"
   height="200"
   viewBox="0 0 52.916665 52.916672"
   version="1.1"
   id="svg8"
   sodipodi:docname="git.svg"
   inkscape:version="0.92.1 r15371">
  <defs
     id="defs2">
    <linearGradient
       inkscape:collect="always"
       id="linearGradient4549">
      <stop
         style="stop-color:#4b0082;stop-opacity:1;"
         offset="0"
         id="stop4545" />
      <stop
         style="stop-color:#4b0082;stop-opacity:0;"
         offset="1"
         id="stop4547" />
    </linearGradient>
    <linearGradient
       inkscape:collect="always"
       xlink:href="#linearGradient4549"
       id="linearGradient4559"
       gradientUnits="userSpaceOnUse"
       x1="3.2661402"
       y1="270.90756"
       x2="61.302509"
       y2="246.8766"
       gradientTransform="translate(0.12136956,-1.4564221)" />
  </defs>
  <sodipodi:namedview
     id="base"
     pagecolor="#ffffff"
     bordercolor="#666666"
     borderopacity="1.0"
     inkscape:pageopacity="0.0"
     inkscape:pageshadow="2"
     inkscape:zoom="2.18"
     inkscape:cx="165.9633"
     inkscape:cy="89.352556"
     inkscape:document-units="px"
     inkscape:current-layer="layer1"
     showgrid="false"
     units="px"
     inkscape:object-nodes="true"
     inkscape:snap-nodes="true"
     inkscape:snap-global="true"
     inkscape:window-width="1366"
     inkscape:window-height="705"
     inkscape:window-x="-8"
     inkscape:window-y="-8"
     inkscape:window-maximized="1" />
  <metadata
     id="metadata5">
    <rdf:RDF>
      <cc:Work
         rdf:about="">
        <dc:format>image/svg+xml</dc:format>
        <dc:type
           rdf:resource="http://purl.org/dc/dcmitype/StillImage" />
        <dc:title></dc:title>
      </cc:Work>
    </rdf:RDF>
  </metadata>
  <g
     inkscape:label="Layer 1"
     inkscape:groupmode="layer"
     id="layer1"
     transform="translate(0,-244.08327)">
    <path
       style="fill:#d3d3d3;fill-rule:evenodd;stroke:#000000;stroke-width:0.26458335px;stroke-linecap:butt;stroke-linejoin:miter;stroke-opacity:1"
       d="m 24.880543,295.78625 h 27.429282 l 0,-50.73203 -51.70298247,-0.12137 -0.12136851,50.73203 z"
       id="path4555"
       inkscape:connector-curvature="0"
       sodipodi:nodetypes="cccccc" />
    <path
       sodipodi:nodetypes="cccccccc"
       inkscape:connector-curvature="0"
       id="path4557"
       d="m 23.181873,275.15359 c -5.056589,3.8945 -2.467731,10.50533 -3.641052,15.89927 l -16.0206444,0.48547 0.121369,-44.17813 45.2704514,0.12137 v 44.05676 l -16.020642,-0.36411 c -0.886731,-5.48074 0.363753,-12.88497 -3.398319,-15.7779"
       style="fill:url(#linearGradient4559);fill-opacity:1;fill-rule:evenodd;stroke:#6b8e23;stroke-width:0.26458335px;stroke-linecap:butt;stroke-linejoin:miter;stroke-opacity:1" />
    <path
       style="fill:#d3d3d3;fill-rule:evenodd;stroke:#556b2f;stroke-width:0.26458335px;stroke-linecap:butt;stroke-linejoin:miter;stroke-opacity:1"
       d="m 29.493036,275.39632 c 4.71633,0.49828 9.052887,-0.38826 12.622324,-3.03421 5.567879,-6.89688 2.381631,-13.58063 -0.606841,-16.99159 0.764372,-3.14003 -0.373541,-4.75468 -0.606848,-5.70432 -2.510388,0.47687 -3.296213,1.35237 -5.461578,3.15558 -5.911421,-1.90157 -12.680695,-1.63009 -17.841169,-0.3641 -1.883094,-1.11465 -2.760084,-2.37226 -5.947057,-2.79148 -0.479998,2.80876 -0.362414,3.99312 0.121369,5.34022 -5.530891,5.05702 -5.679612,12.1773 -1.213687,17.23432 3.384247,2.07315 8.363836,3.73562 12.622324,2.91285 h 0.121368"
       id="path4561"
       inkscape:connector-curvature="0"
       sodipodi:nodetypes="ccccccccccc" />
    <path
       sodipodi:nodetypes="cccccc"
       inkscape:connector-curvature="0"
       id="path4563"
       d="m 20.031434,282.07161 c -9.143771,3.98788 -9.959268,-10.24347 -16.2690109,-8.8599 v 0 0 c 8.9317639,-2.69244 6.6637079,11.6002 16.9920779,5.21884 v 0"
       style="fill:#d3d3d3;fill-rule:evenodd;stroke:#6b8e23;stroke-width:0.26364723px;stroke-linecap:butt;stroke-linejoin:miter;stroke-opacity:1" />
  </g>
</svg>
